<?xml version="1.0" standalone="no"?> <!DOCTYPE svg PUBLIC "-//W3C//DTD SVG 1.0//EN" "http://www.w3.org/TR/2001/REC-SVG-20010904/DTD/svg10.dtd" > <svg xmlns="http://www.w3.org/2000/svg" width="100%" height="100%">
<defs >
<font id="njfontsigning-medium" horiz-adv-x="1067" ><font-face
    font-family="NJFont Signing"
    units-per-em="2048"
    panose-1="2 11 6 3 3 3 4 2 2 4"
    ascent="1847"
    descent="-517"
    alphabetic="0" />
<missing-glyph horiz-adv-x="2048" d="M256 0V1536H1792V0H256ZM384 128H1664V1408H384V128Z" />
<glyph unicode=" " glyph-name="space" horiz-adv-x="614" />
<glyph unicode="!" glyph-name="exclam" horiz-adv-x="569" d="M410 995L381 393H186L145 995V1366H410V995ZM457 152L285 -25L113 152L285 326L457 152Z" />
<glyph unicode="&quot;" glyph-name="quotedbl" horiz-adv-x="780" d="M698 1118L649 844H500L451 1118V1366H698V1118ZM330 1118L281 844H131L82 1118V1366H330V1118Z" />
<glyph unicode="#" glyph-name="numbersign" horiz-adv-x="1190" d="M1137 938L1102 807H883L817 559H1040L1004 430H782L721 201H584L643 430H414L352 201H213L272 430H55L88 559H311L377 807H152L188 938H412L473 1165H610L547 938H780L842 1165H981L922 938H1137ZM743
801H512L451 567H680L743 801Z" />
<glyph unicode="$" glyph-name="dollar" horiz-adv-x="991" d="M686 1044Q625 1167 498 1167Q434 1167 393 1130T352 1040Q352 979 406 936T602 819Q795 719 863 626T932 395Q932 242 850 134T618 -10V-160H391V-23Q128 11 18 254L238 383Q317 209 473 209Q559
209 612 256T666 377Q666 442 618 492T399 625Q222 712 155 801T88 1026Q88 1155 169 1253T391 1380V1520H618V1382Q812 1347 899 1165L686 1044Z" />
<glyph unicode="%" glyph-name="percent" horiz-adv-x="1526" d="M379 1391Q506 1391 596 1301T686 1083Q686 956 596 866T379 776Q252 776 162 866T72 1083Q72 1211 161 1301T379 1391ZM379 956Q431 956 468 993T506 1083Q506 1135 469 1172T379 1210Q327 1210
290 1173T252 1083Q252 1031 289 994T379 956ZM1221 1391L510 -25H305L1016 1391H1221ZM1147 590Q1274 590 1364 500T1454 283Q1454 156 1364 66T1147 -25Q1020 -25 930 65T840 283Q840 409 930 499T1147 590ZM1147 156Q1199 156 1236 193T1274 283Q1274 335 1237
372T1147 410Q1095 410 1058 373T1020 283Q1020 231 1057 194T1147 156Z" />
<glyph unicode="&amp;" glyph-name="ampersand" horiz-adv-x="1376" d="M1335 0H1032L907 141Q728 -25 524 -25Q335 -25 216 94T96 393Q96 504 164 602T358 762Q217 901 217 1051Q217 1195 327 1293T600 1391Q766 1391 876 1298T987 1065Q987 951 927 866T717
700L913 475Q1004 574 1040 715H1294Q1249 502 1069 301L1335 0ZM580 854Q764 932 764 1044Q764 1109 720 1145T606 1182Q542 1182 498 1145T453 1055Q453 1015 477 977T580 854ZM758 311L506 594Q354 515 354 393Q354 316 408 266T545 215Q650 215 758 311Z" />
<glyph unicode="&apos;" glyph-name="quotesingle" horiz-adv-x="412" d="M330 1118L281 844H131L82 1118V1366H330V1118Z" />
<glyph unicode="(" glyph-name="parenleft" horiz-adv-x="535" d="M467 -154H238Q55 185 55 676Q55 1174 238 1511H467Q287 1168 287 678Q287 190 467 -154Z" />
<glyph unicode=")" glyph-name="parenright" horiz-adv-x="535" d="M297 1511Q479 1174 479 676Q479 185 297 -154H68Q248 190 248 678Q248 1168 68 1511H297Z" />
<glyph unicode="*" glyph-name="asterisk" horiz-adv-x="858" d="M776 936L680 770L477 924L510 672H315L348 924L152 770L55 936L281 1034L55 1130L152 1300L348 1149L315 1391H510L477 1149L680 1300L776 1130L543 1034L776 936Z" />
<glyph unicode="+" glyph-name="plus" horiz-adv-x="1167" d="M1096 569H698V172H469V569H72V799H469V1196H698V799H1096V569Z" />
<glyph unicode="," glyph-name="comma" horiz-adv-x="508" d="M262 336Q360 238 376 218T403 166T414 100Q414 15 338 -71T139 -217L129 -205Q207 -131 207 -51Q207 5 190 34T82 154L262 336Z" />
<glyph unicode="-" glyph-name="hyphen" horiz-adv-x="801" d="M719 451H82V676H719V451Z" />
<glyph unicode="." glyph-name="period" horiz-adv-x="522" d="M440 156L262 -25L82 156L262 336L440 156Z" />
<glyph unicode="/" glyph-name="slash" horiz-adv-x="694" d="M709 1522L217 -156H-14L477 1522H709Z" />
<glyph unicode="0" glyph-name="zero" horiz-adv-x="1171" d="M586 1391Q801 1391 935 1200T1069 702Q1069 469 1008 306T834 59T586 -25Q368 -25 235 169T102 686Q102 1003 235 1197T586 1391ZM586 197Q697 197 756 330T815 700Q815 922 753 1045T586 1169Q478
1169 417 1042T356 686Q356 453 417 325T586 197Z" />
<glyph unicode="1" glyph-name="one" horiz-adv-x="639" d="M188 0V1212L449 1391V0H188Z" />
<glyph unicode="2" glyph-name="two" horiz-adv-x="950" d="M874 0H61L510 770Q573 877 573 967Q573 1045 521 1092T379 1139Q231 1139 61 944V1237Q215 1391 426 1391Q606 1391 725 1281T844 1006Q844 889 805 794T714 608L504 248H874V0Z" />
<glyph unicode="3" glyph-name="three" horiz-adv-x="1075" d="M680 872Q822 843 901 734T981 467Q981 249 847 112T496 -25Q230 -25 47 203L209 377Q336 209 481 209Q592 209 659 277T727 453Q727 568 648 639T442 711Q368 711 295 686L565 1135H88V1366H971L680 872Z" />
<glyph unicode="4" glyph-name="four" horiz-adv-x="1149" d="M950 227V0H690V227H0L950 1393V453H1087V227H950ZM700 745L451 446H700V745Z" />
<glyph unicode="5" glyph-name="five" horiz-adv-x="1063" d="M967 1366L864 1135H477L455 893Q493 901 528 901Q713 901 831 777T950 463Q950 251 816 113T473 -25Q214 -25 27 170L172 358Q249 279 314 244T457 209Q562 209 629 278T696 455Q696 569 619 638T414
707Q351 707 304 692T182 643L254 1366H967Z" />
<glyph unicode="6" glyph-name="six" horiz-adv-x="1141" d="M426 834Q523 883 641 883Q822 883 937 759T1053 438Q1053 238 915 107T569 -25Q364 -25 233 125T102 518Q102 738 217 957T543 1366H883Q545 1075 426 834ZM369 596Q354 542 354 471Q354 354 419 279T586
203Q682 203 745 264T809 418Q809 525 751 589T594 653Q467 653 369 596Z" />
<glyph unicode="7" glyph-name="seven" horiz-adv-x="1008" d="M993 1366L356 0H68L606 1137H55V1366H993Z" />
<glyph unicode="8" glyph-name="eight" horiz-adv-x="1102" d="M731 743Q1006 645 1006 385Q1006 217 872 96T549 -25Q359 -25 227 93T94 381Q94 641 367 739Q160 827 160 1036Q160 1185 270 1288T541 1391Q707 1391 818 1291T930 1040Q930 832 731 743ZM551 846Q640
893 671 933T702 1026Q702 1091 656 1135T541 1180Q475 1180 430 1138T385 1036Q385 933 551 846ZM547 618Q348 541 348 389Q348 311 406 260T555 209Q641 209 695 258T750 385Q750 449 712 501T547 618Z" />
<glyph unicode="9" glyph-name="nine" horiz-adv-x="1145" d="M729 547Q630 487 510 487Q321 487 205 612T88 930Q88 1122 223 1256T563 1391Q777 1391 909 1241T1042 852Q1042 427 575 0H217Q578 285 729 547ZM778 780Q791 829 791 887Q791 1008 723 1085T551
1163Q456 1163 394 1099T332 934Q332 836 393 777T557 717Q692 717 778 780Z" />
<glyph unicode=":" glyph-name="colon" horiz-adv-x="588" d="M451 836L274 655L96 836L274 1012L451 836ZM451 158L274 -20L96 158L274 336L451 158Z" />
<glyph unicode=";" glyph-name="semicolon" horiz-adv-x="594" d="M444 838L262 657L82 838L262 1016L444 838ZM270 336Q368 238 385 218T412 166T422 100Q422 15 346 -71T147 -217L137 -205Q215 -131 215 -51Q215 5 198 34T90 154L270 336Z" />
<glyph unicode="&lt;" glyph-name="less" horiz-adv-x="1167" d="M1096 215L72 602V766L1096 1153V936L432 684L1096 432V215Z" />
<glyph unicode="=" glyph-name="equal" horiz-adv-x="1167" d="M1096 821H72V1051H1096V821ZM1096 315H72V545H1096V315Z" />
<glyph unicode="&gt;" glyph-name="greater" horiz-adv-x="1167" d="M1096 602L72 215V432L735 684L72 936V1153L1096 766V602Z" />
<glyph unicode="?" glyph-name="question" horiz-adv-x="907" d="M53 1190Q178 1393 424 1393Q599 1393 712 1294T825 1040Q825 935 772 854T598 692Q528 646 528 610Q528 579 604 524L453 377Q359 444 327 497T295 616Q295 727 410 811Q507 882 528 902T565 956T582
1030Q582 1083 539 1121T432 1159Q300 1159 219 1014L53 1190ZM625 150L453 -27L281 150L453 324L625 150Z" />
<glyph unicode="@" glyph-name="at" horiz-adv-x="1944" d="M1651 -213Q1373 -381 1016 -381Q592 -381 332 -149T72 455Q72 873 342 1139T1034 1405Q1400 1405 1636 1197T1872 664Q1872 379 1721 182T1346 -16Q1177 -16 1098 129Q931 -16 803 -16Q661 -16 571
86T481 348Q481 623 677 815T1137 1008Q1291 1008 1399 956Q1262 460 1250 411T1237 313Q1237 254 1273 211T1372 168Q1503 168 1590 306T1677 653Q1677 915 1495 1069T1022 1223Q696 1223 481 1009T266 471Q266 166 470 -12T1030 -190Q1371 -190 1675 27L1651
-213ZM1165 815Q1133 819 1110 819Q942 819 813 678T684 369Q684 274 723 222T831 170Q919 170 1042 295Q1042 388 1079 516L1165 815Z" />
<glyph unicode="A" glyph-name="A" horiz-adv-x="1362" d="M1348 0H1061L954 283H408L303 0H14L539 1366H817L1348 0ZM862 524L678 1006L498 524H862Z" />
<glyph unicode="B" glyph-name="B" horiz-adv-x="1137" d="M799 750Q940 723 1018 631T1096 403Q1096 237 973 119T610 0H164V1366H561Q764 1366 877 1275T991 1026Q991 925 941 851T799 750ZM426 834H549Q631 834 679 874T727 983Q727 1054 682 1094T555 1135H426V834ZM426
231H608Q713 231 771 278T829 410Q829 502 770 552T606 602H426V231Z" />
<glyph unicode="C" glyph-name="C" horiz-adv-x="1341" d="M1274 106Q1073 -25 803 -25Q497 -25 290 180T82 688Q82 986 290 1188T811 1391Q1043 1391 1274 1270V991Q1051 1147 831 1147Q622 1147 485 1014T348 684Q348 490 481 357T811 223Q1062 223 1274 367V106Z" />
<glyph unicode="D" glyph-name="D" horiz-adv-x="1438" d="M164 1366H629Q972 1366 1164 1174T1356 700Q1356 397 1139 199T551 0H164V1366ZM430 240H565Q803 240 946 363T1090 690Q1090 897 956 1016T588 1135H430V240Z" />
<glyph unicode="E" glyph-name="E" horiz-adv-x="1102" d="M1061 0H164V1366H1012V1128H430V844H889V604H430V244H1061V0Z" />
<glyph unicode="F" glyph-name="F" horiz-adv-x="1030" d="M1001 1128H430V842H883V602H430V0H164V1366H1001V1128Z" />
<glyph unicode="G" glyph-name="G" horiz-adv-x="1452" d="M1309 119Q1077 -25 827 -25Q504 -25 293 177T82 686Q82 985 293 1188T815 1391Q1081 1391 1298 1278V999Q1084 1147 840 1147Q626 1147 487 1014T348 680Q348 477 484 345T842 213Q951 213 1042 244V535H821V768H1309V119Z"
/>
<glyph unicode="H" glyph-name="H" horiz-adv-x="1481" d="M1317 0H1051V602H430V0H164V1366H430V844H1051V1366H1317V0Z" />
<glyph unicode="I" glyph-name="I" horiz-adv-x="594" d="M430 0H164V1366H430V0Z" />
<glyph unicode="J" glyph-name="J" horiz-adv-x="969" d="M846 451Q846 223 739 99T434 -25Q295 -25 191 48T41 254L272 360Q327 225 428 225Q580 225 580 440V1366H846V451Z" />
<glyph unicode="K" glyph-name="K" horiz-adv-x="1307" d="M1294 0H948L430 598V0H164V1366H430V858L924 1366H1262L631 733L1294 0Z" />
<glyph unicode="L" glyph-name="L" horiz-adv-x="1036" d="M995 0H164V1366H430V250H995V0Z" />
<glyph unicode="M" glyph-name="M" horiz-adv-x="1714" d="M1550 0H1284V965L854 428L424 956V0H164V1366H424L854 827L1282 1366H1550V0Z" />
<glyph unicode="N" glyph-name="N" horiz-adv-x="1577" d="M1413 0H1153L424 942V0H164V1366H424L1153 420V1366H1413V0Z" />
<glyph unicode="O" glyph-name="O" horiz-adv-x="1597" d="M799 1391Q1098 1391 1307 1184T1516 682Q1516 390 1307 183T799 -25Q501 -25 292 181T82 682Q82 873 177 1037T438 1296T799 1391ZM799 238Q986 238 1117 369T1249 680Q1249 866 1118 997T799 1128Q611
1128 480 997T348 682Q348 499 479 369T799 238Z" />
<glyph unicode="P" glyph-name="P" horiz-adv-x="1141" d="M164 1366H623Q844 1366 972 1253T1100 944Q1100 747 967 629T608 510H430V0H164V1366ZM430 748H588Q834 748 834 942Q834 1135 588 1135H430V748Z" />
<glyph unicode="Q" glyph-name="Q" horiz-adv-x="1597" d="M1526 168L1360 -18L1214 111Q1045 -25 799 -25Q501 -25 292 181T82 682Q82 873 177 1037T438 1296T799 1391Q1098 1391 1307 1184T1516 682Q1516 449 1389 289L1526 168ZM1192 463Q1249 563 1249 680Q1249
866 1118 997T799 1128Q611 1128 480 997T348 682Q348 499 479 369T799 238Q920 238 1014 291L893 399L1057 582L1192 463Z" />
<glyph unicode="R" glyph-name="R" horiz-adv-x="1251" d="M1235 0H922L545 545H426V0H164V1366H598Q812 1366 937 1259T1063 967Q1063 841 996 746T805 606L1235 0ZM426 776H551Q669 776 734 826T799 965Q799 1045 739 1090T573 1135H426V776Z" />
<glyph unicode="S" glyph-name="S" horiz-adv-x="1028" d="M676 1032Q626 1155 516 1155Q456 1155 418 1123T379 1038Q379 987 417 951T553 866Q735 779 781 751T871 669T939 550T963 410Q963 215 837 95T510 -25Q196 -25 45 264L274 395Q367 221 524 221Q598
221 648 269T698 391Q698 448 672 488T599 556T365 682Q123 806 123 1032Q123 1189 235 1290T518 1391Q797 1391 899 1153L676 1032Z" />
<glyph unicode="T" glyph-name="T" horiz-adv-x="1139" d="M1098 1128H702V0H436V1128H41V1366H1098V1128Z" />
<glyph unicode="U" glyph-name="U" horiz-adv-x="1442" d="M1331 629Q1331 426 1262 291T1049 65T721 -25Q472 -25 291 142T109 621V1366H369V618Q369 442 463 337T719 231Q878 231 971 336T1065 618V1366H1331V629Z" />
<glyph unicode="V" glyph-name="V" horiz-adv-x="1401" d="M1346 1366L829 0H584L55 1366H346L707 395L1061 1366H1346Z" />
<glyph unicode="W" glyph-name="W" horiz-adv-x="2021" d="M1966 1366L1534 0H1278L1012 877L758 0H504L55 1366H338L635 442L899 1366H1118L1397 438L1690 1366H1966Z" />
<glyph unicode="X" glyph-name="X" horiz-adv-x="1356" d="M1343 0H1024L678 537L330 0H14L510 725L53 1366H365L678 905L989 1366H1298L848 725L1343 0Z" />
<glyph unicode="Y" glyph-name="Y" horiz-adv-x="1311" d="M1255 1366L793 580V0H526V580L55 1366H367L659 844L952 1366H1255Z" />
<glyph unicode="Z" glyph-name="Z" horiz-adv-x="1284" d="M1212 0H72L776 1126H90V1366H1212L532 250H1212V0Z" />
<glyph unicode="[" glyph-name="bracketleft" horiz-adv-x="618" d="M588 -127H102V1485H588V1300H338V59H588V-127Z" />
<glyph unicode="\" glyph-name="backslash" horiz-adv-x="694" d="M709 -156H477L-14 1522H217L709 -156Z" />
<glyph unicode="]" glyph-name="bracketright" horiz-adv-x="618" d="M516 -127H31V59H281V1300H31V1485H516V-127Z" />
<glyph unicode="^" glyph-name="asciicircum" horiz-adv-x="1188" d="M1008 954H743L594 1174L444 954H180L475 1366H713L1008 954Z" />
<glyph unicode="_" glyph-name="underscore" horiz-adv-x="1024" d="M1036 -256H-12V-154H1036V-256Z" />
<glyph unicode="`" glyph-name="grave" horiz-adv-x="682" d="M535 1141H348L78 1434H328L535 1141Z" />
<glyph unicode="a" glyph-name="a" horiz-adv-x="969" d="M879 0H653V82Q516 -23 360 -23Q219 -23 133 58T47 270Q47 438 201 542T641 662Q637 742 592 778T440 815Q271 815 117 721L168 956Q327 1014 487 1014Q608 1014 696 976T832 863T879 635V0ZM641 246V500Q462
475 376 426T289 295Q289 241 327 209T432 176Q505 176 641 246Z" />
<glyph unicode="b" glyph-name="b" horiz-adv-x="1151" d="M367 940Q463 1014 610 1014Q816 1014 949 867T1083 494Q1083 267 953 122T608 -23Q456 -23 352 72V0H129V1366H367V940ZM367 250Q446 195 567 195Q695 195 768 271T842 481Q842 627 766 712T557 797Q450
797 367 741V250Z" />
<glyph unicode="c" glyph-name="c" horiz-adv-x="1010" d="M922 51Q781 -23 604 -23Q378 -23 223 126T68 494Q68 712 222 863T602 1014Q778 1014 922 930V686Q785 791 621 791Q483 791 399 709T315 496Q315 364 400 283T623 201Q700 201 764 219T922 291V51Z" />
<glyph unicode="d" glyph-name="d" horiz-adv-x="1147" d="M1018 0H795V76Q696 -23 545 -23Q332 -23 200 122T68 494Q68 719 201 866T545 1014Q678 1014 780 946V1366H1018V0ZM780 250V739Q698 797 592 797Q459 797 384 716T309 494Q309 359 384 277T590 195Q701
195 780 250Z" />
<glyph unicode="e" glyph-name="e" horiz-adv-x="1102" d="M989 45Q828 -23 612 -23Q365 -23 217 121T68 504Q68 724 208 869T563 1014Q782 1014 905 875T1028 500Q1028 458 1026 424H315Q350 180 653 180Q800 180 989 266V45ZM793 614Q785 710 722 765T559 821Q464
821 400 767T319 614H793Z" />
<glyph unicode="f" glyph-name="f" horiz-adv-x="838" d="M801 805H434V0H197V805H47V991H197Q198 1202 284 1302T551 1403Q671 1403 801 1366V1161Q696 1212 612 1212Q434 1212 434 991H801V805Z" />
<glyph unicode="g" glyph-name="g" horiz-adv-x="1081" d="M1032 817H854Q905 743 905 651Q905 565 862 493T735 389T440 324Q367 312 367 274Q367 227 494 219Q679 203 775 178T933 86T995 -86Q995 -218 870 -299T535 -381Q327 -381 205 -307T82 -109Q82 -20
140 41T307 125Q162 167 162 276Q162 381 313 424Q235 458 191 525T147 676Q147 825 252 919T518 1014Q552 1014 580 1011T632 1002L676 991H1032V817ZM526 522Q598 522 642 563T686 670Q686 741 643 783T524 825Q455 825 411 783T367 676Q367 608 410 565T526
522ZM551 -209Q663 -209 723 -178T784 -88Q784 -31 719 1T539 33Q425 33 364 1T303 -92Q303 -209 551 -209Z" />
<glyph unicode="h" glyph-name="h" horiz-adv-x="1116" d="M1028 0H791V557Q791 797 584 797Q472 797 367 725V0H129V1366H367V926Q477 1014 627 1014Q820 1014 924 903T1028 608V0Z" />
<glyph unicode="i" glyph-name="i" horiz-adv-x="489" d="M414 1237L244 1065L76 1237L244 1409L414 1237ZM365 0H127V991H365V0Z" />
<glyph unicode="j" glyph-name="j" horiz-adv-x="510" d="M434 1239L262 1065L90 1239L262 1411L434 1239ZM383 -25Q383 -192 305 -286T76 -381Q18 -381 -43 -362V-147Q3 -162 37 -162Q98 -162 121 -128T145 -6V991H383V-25Z" />
<glyph unicode="k" glyph-name="k" horiz-adv-x="1026" d="M1020 0H725L367 446V0H129V1366H367V651L690 991H995L557 553L1020 0Z" />
<glyph unicode="l" glyph-name="l" horiz-adv-x="584" d="M537 8Q473 -23 385 -23Q278 -23 198 38T117 266V1366H354V309Q354 241 374 213T444 184Q488 184 537 201V8Z" />
<glyph unicode="m" glyph-name="m" horiz-adv-x="1663" d="M1575 0H1337V559Q1337 797 1159 797Q1058 797 950 719Q965 694 965 588V0H727V551Q727 797 551 797Q453 797 354 715V0H117V991H338V901Q445 1014 616 1014Q794 1014 887 893Q1020 1014 1212 1014Q1386
1014 1480 909T1575 608V0Z" />
<glyph unicode="n" glyph-name="n" horiz-adv-x="1096" d="M1008 0H770V559Q770 797 569 797Q457 797 354 713V0H117V991H338V905Q447 1014 606 1014Q800 1014 904 909T1008 608V0Z" />
<glyph unicode="o" glyph-name="o" horiz-adv-x="1171" d="M586 1014Q801 1014 952 862T1104 496Q1104 282 952 130T586 -23Q372 -23 220 129T68 496Q68 710 220 862T586 1014ZM586 209Q701 209 781 292T862 496Q862 616 782 699T586 782Q470 782 390 699T309
496Q309 376 389 293T586 209Z" />
<glyph unicode="p" glyph-name="p" horiz-adv-x="1128" d="M340 913Q448 1014 602 1014Q802 1014 931 869T1061 502Q1061 274 930 126T598 -23Q445 -23 354 49V-381H117V991H340V913ZM354 242Q441 184 551 184Q677 184 748 264T819 485Q819 628 746 711T545 795Q446
795 354 737V242Z" />
<glyph unicode="q" glyph-name="q" horiz-adv-x="1137" d="M1020 -381H782V51Q684 -23 549 -23Q334 -23 201 124T68 500Q68 728 200 871T555 1014Q694 1014 797 920V991H1020V-381ZM782 246V741Q699 799 584 799Q458 799 384 719T309 500Q309 359 387 274T596
188Q706 188 782 246Z" />
<glyph unicode="r" glyph-name="r" horiz-adv-x="729" d="M680 793Q641 803 606 803Q470 803 354 705V0H117V991H338V893Q436 1014 594 1014Q637 1014 680 1004V793Z" />
<glyph unicode="s" glyph-name="s" horiz-adv-x="950" d="M799 705Q622 811 485 811Q414 811 373 786T332 719Q332 682 364 663T508 613T699 548T834 449T889 276Q889 141 784 59T504 -23Q292 -23 104 100V326Q321 172 504 172Q565 172 602 197T639 266Q639 304
609 334T452 403Q326 441 254 472T133 561T84 713Q84 845 186 929T457 1014Q636 1014 799 926V705Z" />
<glyph unicode="t" glyph-name="t" horiz-adv-x="891" d="M815 20Q707 -23 573 -23Q398 -23 305 67T211 324V805H47V991H211V1233H449V991H805V805H449V334Q449 273 467 241T522 194T614 178Q687 178 815 236V20Z" />
<glyph unicode="u" glyph-name="u" horiz-adv-x="1104" d="M987 0H766V80Q643 -23 489 -23Q298 -23 193 87T88 395V991H326V426Q326 195 528 195Q644 195 750 276V991H987V0Z" />
<glyph unicode="v" glyph-name="v" horiz-adv-x="1010" d="M989 991L623 0H387L20 991H289L508 326L725 991H989Z" />
<glyph unicode="w" glyph-name="w" horiz-adv-x="1563" d="M1542 991L1231 0H971L780 705L594 0H336L20 991H283L471 317L647 991H911L1096 317L1284 991H1542Z" />
<glyph unicode="x" glyph-name="x" horiz-adv-x="1069" d="M1036 0H735L530 324L324 0H35L389 518L70 991H367L537 715L707 991H995L676 518L1036 0Z" />
<glyph unicode="y" glyph-name="y" horiz-adv-x="1012" d="M991 991L571 -137Q529 -253 443 -317T242 -381Q168 -381 94 -365V-162Q147 -184 217 -184Q264 -184 294 -168T339 -125T399 12L20 991H289L516 340L735 991H991Z" />
<glyph unicode="z" glyph-name="z" horiz-adv-x="973" d="M932 991L438 199H915V0H41L539 799H90V991H932Z" />
<glyph unicode="{" glyph-name="braceleft" horiz-adv-x="748" d="M676 -236H625Q396 -236 329 -172T262 43V340Q262 442 226 492T82 594V764Q194 817 228 867T262 1018V1317Q262 1462 328 1527T625 1593H676V1442H631Q551 1442 522 1411T492 1292V995Q492 858
451 800T311 680Q432 599 462 539T492 369V68Q492 -22 522 -53T637 -84H676V-236Z" />
<glyph unicode="|" glyph-name="bar" horiz-adv-x="432" d="M330 -512H102V1536H330V-512Z" />
<glyph unicode="}" glyph-name="braceright" horiz-adv-x="748" d="M666 594Q558 543 522 493T485 340V43Q485 -108 418 -172T123 -236H72V-84H111Q195 -84 225 -53T256 68V369Q256 479 286 539T436 680Q338 742 297 800T256 995V1292Q256 1378 227 1410T117 1442H72V1593H123Q352
1593 418 1528T485 1317V1018Q485 918 519 868T666 764V594Z" />
<glyph unicode="~" glyph-name="asciitilde" horiz-adv-x="1188" d="M1106 772Q1001 508 782 508Q689 508 552 578Q448 631 395 631Q314 631 268 508L82 596Q187 860 406 860Q498 860 636 790Q740 737 793 737Q873 737 920 860L1106 772Z" />
</font>
</defs>
</svg>
